<svg xmlns="http://www.w3.org/2000/svg" width="47" height="43.88" viewBox="0 0 47 43.88"><defs><style>.a{fill:#1b305a;}</style></defs><g transform="translate(-2.5 -4.06)"><path class="a" d="M39.522,47.94H12.479A.5.5,0,0,1,12,47.282l2.08-6.241a.5.5,0,0,1,.475-.342H37.442a.5.5,0,0,1,.475.342L40,47.282a.5.5,0,0,1-.475.658Zm-26.351-1H38.829L37.082,41.7H14.919Z"/><path class="a" d="M37.581,41.7H14.42a.5.5,0,0,1-.5-.5V25.055A11.647,11.647,0,0,1,25.554,13.422h.894A11.647,11.647,0,0,1,38.081,25.055V41.2A.5.5,0,0,1,37.581,41.7Zm-22.661-1H37.081V25.055A10.646,10.646,0,0,0,26.447,14.422h-.894A10.646,10.646,0,0,0,14.92,25.055V40.7Z"/><path class="a" d="M26,9.221a.5.5,0,0,1-.5-.5V4.56a.5.5,0,0,1,1,0V8.721A.5.5,0,0,1,26,9.221Z"/><path class="a" d="M41.528,15.653a.5.5,0,0,1-.354-.854l2.942-2.942a.5.5,0,0,1,.707.707l-2.942,2.942A.5.5,0,0,1,41.528,15.653Z"/><path class="a" d="M49,31.181H44.84a.5.5,0,0,1,0-1H49a.5.5,0,0,1,0,1Z"/><path class="a" d="M7.161,31.182H3a.5.5,0,1,1,0-1H7.161a.5.5,0,0,1,0,1Z"/><path class="a" d="M10.472,15.654a.5.5,0,0,1-.354-.146L7.176,12.565a.5.5,0,0,1,.707-.707L10.825,14.8a.5.5,0,0,1-.354.854Z"/><path class="a" d="M26,36.364a1.617,1.617,0,1,1,1.132-.474A1.544,1.544,0,0,1,26,36.364ZM24.48,20.756H27.5v2.781l-.647,7.783H25.128l-.647-7.783V20.756Z"/></g></svg>