<svg xmlns="http://www.w3.org/2000/svg" width="25.998" height="25.999" viewBox="0 0 25.998 25.999"><defs><style>.a{fill:#bdbdbd;}</style></defs><path class="a" d="M8259.228-13523.483a13,13,0,0,1,2.58-14.71,13,13,0,0,1,14.707-2.577,13,13,0,0,1,7.43,12.954,13,13,0,0,1-11.76,11.762q-.6.054-1.187.054A13,13,0,0,1,8259.228-13523.483Zm1.17-10.619a11.76,11.76,0,0,0,2.291,13.4,11.76,11.76,0,0,0,13.4,2.291,11.769,11.769,0,0,0,6.61-11.877,11.765,11.765,0,0,0-10.425-10.424,11.782,11.782,0,0,0-1.268-.068A11.769,11.769,0,0,0,8260.4-13534.1Zm12.287,9.355a2.4,2.4,0,0,1,.014-.277l-3.277-2.314a2.649,2.649,0,0,1-1.9.78,2.516,2.516,0,0,1-2.59-2.427,2.514,2.514,0,0,1,2.59-2.428,2.674,2.674,0,0,1,1.9.774l3.3-2.45a2.15,2.15,0,0,1-.037-.419,2.513,2.513,0,0,1,2.586-2.427,2.516,2.516,0,0,1,2.59,2.427,2.514,2.514,0,0,1-2.59,2.428,2.611,2.611,0,0,1-2.308-1.331l-3.134,2.327a2.288,2.288,0,0,1,0,2.191l3.069,2.17a2.6,2.6,0,0,1,2.369-1.452,2.515,2.515,0,0,1,2.59,2.428,2.516,2.516,0,0,1-2.59,2.427A2.513,2.513,0,0,1,8272.685-13524.747Z" transform="translate(-8258 13542)"/></svg>