<svg xmlns="http://www.w3.org/2000/svg" width="16.489" height="14.632" viewBox="0 0 16.489 14.632"><defs><style>.a{fill:#5d5c5c;}</style></defs><g transform="translate(-2.923 -111.1)"><path class="a" d="M63.052,111.923a.443.443,0,0,1,.412.412v9.892a.443.443,0,0,1-.412.412H49.037a.443.443,0,0,1-.412-.412v-9.892a.443.443,0,0,1,.412-.412H63.052m0-.823H49.037a1.269,1.269,0,0,0-1.237,1.237v9.892a1.241,1.241,0,0,0,1.237,1.237H63.052a1.215,1.215,0,0,0,1.237-1.237v-9.892A1.241,1.241,0,0,0,63.052,111.1Z" transform="translate(-44.877)"/><path class="a" d="M365.153,839.813h-4.946a.207.207,0,1,1,0-.413h4.946a.207.207,0,1,1,0,.413Z" transform="translate(-351.512 -715.319)"/><path class="a" d="M209.024,909.214H198.307a.207.207,0,1,1,0-.414h10.717a.207.207,0,1,1,0,.414Z" transform="translate(-192.498 -783.482)"/><path class="a" d="M165.355,678.013h-1.649a.207.207,0,1,1,0-.413h1.649a.207.207,0,1,1,0,.413Z" transform="translate(-158.514 -556.403)"/><path class="a" d="M869.007,231.234a.2.2,0,0,1-.207-.207v-4.121a.207.207,0,1,1,.414,0v4.123A.2.2,0,0,1,869.007,231.234Z" transform="translate(-851.243 -113.54)"/></g></svg>