<?xml version="1.0" encoding="utf-8"?>
<!-- Generator: Adobe Illustrator 23.0.3, SVG Export Plug-In . SVG Version: 6.00 Build 0)  -->
<svg version="1.1" id="Camada_1" xmlns="http://www.w3.org/2000/svg" xmlns:xlink="http://www.w3.org/1999/xlink" x="0px" y="0px"
	 width="600px" height="600px" viewBox="0 0 600 600" style="enable-background:new 0 0 600 600;" xml:space="preserve">
<style type="text/css">
	.st0{fill:#696969;stroke:#696969;stroke-width:18;stroke-miterlimit:10;}
	.st1{fill:none;stroke:#696969;stroke-width:12;stroke-miterlimit:10;}
</style>
<g>
	<g>
		<g>
			<path class="st0" d="M445.3,456.9c3.1,0,6.2-1.2,8.5-3.5c4.7-4.7,4.7-12.4,0-17.1L164.2,146.6c-4.7-4.7-12.4-4.7-17.1,0
				c-4.7,4.7-4.7,12.4,0,17.1l289.7,289.7C439.1,455.7,442.2,456.9,445.3,456.9z"/>
		</g>
		<g>
			<path class="st1" d="M168.1,219.5l51.7,51.7c-3.1,8.8-4.8,18.4-4.8,28.3c0,46.9,38,85,85,85c9.9,0,19.4-1.7,28.3-4.8l28.8,28.8
				c-18.3,4.4-37.4,7-57,7c-131.8,0-238.6-115.9-238.6-115.9S103.8,253.5,168.1,219.5z"/>
			<path class="st1" d="M513.8,276.1c-9.3,4.3-19.7,6.7-30.7,6.7c-40.8,0-73.8-33.1-73.8-73.8c0-0.1,0-0.3,0-0.4
				c-32.7-14.5-69.9-24.9-109.3-24.9c-19.7,0-38.8,2.6-57,7l28.8,28.8c8.8-3.1,18.4-4.8,28.3-4.8c46.9,0,85,38,85,85
				c0,9.9-1.7,19.4-4.8,28.3l51.7,51.7c64.3-34,106.7-80,106.7-80S529.7,289.8,513.8,276.1z"/>
		</g>
	</g>
	<path class="st1" d="M483.1,153.9c-30.4,0-55,24.6-55,55c0,30.4,24.6,55,55,55c30.4,0,55-24.6,55-55
		C538.1,178.5,513.5,153.9,483.1,153.9z M508.4,214.3h-19.9v19.9c0,3-2.4,5.4-5.4,5.4s-5.4-2.4-5.4-5.4v-19.9h-19.9
		c-3,0-5.4-2.4-5.4-5.4s2.4-5.4,5.4-5.4h19.9v-19.9c0-3,2.4-5.4,5.4-5.4s5.4,2.4,5.4,5.4v19.9h19.9c3,0,5.4,2.4,5.4,5.4
		S511.4,214.3,508.4,214.3z"/>
</g>
</svg>
