<svg xmlns="http://www.w3.org/2000/svg" width="26" height="26" viewBox="0 0 26 26"><defs><style>.a{fill:#bdbdbd;}</style></defs><g transform="translate(-756 -768)"><path class="a" d="M14.186,25.947A13,13,0,1,1,25.947,14.186,13,13,0,0,1,14.186,25.947Zm.09-24.659A11.762,11.762,0,1,0,24.7,11.713,11.762,11.762,0,0,0,14.275,1.288Z" transform="translate(755.999 767.999)"/><path class="a" d="M34.406,43.038a.718.718,0,0,0-.683.748v2.889a1.435,1.435,0,0,1-1.367,1.5H22.932a1.435,1.435,0,0,1-1.367-1.5V43.786a.686.686,0,1,0-1.367,0v2.889a2.871,2.871,0,0,0,2.734,2.99h9.424a2.871,2.871,0,0,0,2.734-2.99V43.786A.718.718,0,0,0,34.406,43.038Z" transform="translate(741.353 737.543)"/><path class="a" d="M37.017,32.726a.6.6,0,0,0,.89,0l2-2.669c.2-.265-.052-.609-.452-.609H38.209V23.916a.748.748,0,0,0-1.5,0v5.532H35.466c-.4,0-.643.329-.445.594Z" transform="translate(731.439 751.331)"/></g></svg>