<svg xmlns="http://www.w3.org/2000/svg" xmlns:xlink="http://www.w3.org/1999/xlink" width="190" height="190" viewBox="0 0 190 190"><defs><style>.a{fill:#fff;}.b{filter:url(#c);}.c{filter:url(#a);}</style><filter id="a" x="59.211" y="44.377" width="91.471" height="101.246" filterUnits="userSpaceOnUse"><feOffset dy="3" input="SourceAlpha"/><feGaussianBlur stdDeviation="3" result="b"/><feFlood flood-opacity="0.161"/><feComposite operator="in" in2="b"/><feComposite in="SourceGraphic"/></filter><filter id="c" x="0" y="0" width="190" height="190" filterUnits="userSpaceOnUse"><feOffset dy="3" input="SourceAlpha"/><feGaussianBlur stdDeviation="3" result="d"/><feFlood flood-opacity="0.161"/><feComposite operator="in" in2="d"/><feComposite in="SourceGraphic"/></filter></defs><g transform="translate(-1 -4)"><g class="c" transform="matrix(1, 0, 0, 1, 1, 4)"><path class="a" d="M44.979,31.65c-4.106-2.365-7.439-.43-7.439,4.3v72.627c0,4.73,3.354,6.665,7.439,4.3L68.973,99.031l14.9-8.6,24.059-13.867c4.106-2.365,4.106-6.235,0-8.6L83.937,54.117l-14.9-8.6Z" transform="translate(30.67 19.74)"/></g><g class="b" transform="matrix(1, 0, 0, 1, 1, 4)"><path class="a" d="M96,10a86,86,0,1,0,86,86A86,86,0,0,0,96,10Zm0,159.1A73.1,73.1,0,1,1,169.1,96,73.1,73.1,0,0,1,96,169.1Z" transform="translate(-1 -4)"/></g></g></svg>