<svg xmlns="http://www.w3.org/2000/svg" width="15.662" height="15.662" viewBox="0 0 15.662 15.662"><defs><style>.a{fill:#bdbdbd;}</style></defs><path class="a" d="M8.546,15.63a7.831,7.831,0,1,1,7.085-7.085A7.831,7.831,0,0,1,8.546,15.63ZM8.6.776a7.085,7.085,0,1,0,6.279,6.279A7.085,7.085,0,0,0,8.6.776Z" transform="translate(-0.002 -0.001)"/><path class="a" d="M27.95,43.038a.373.373,0,0,0-.373.373v1.441a.746.746,0,0,1-.746.746H21.69a.746.746,0,0,1-.746-.746V43.411a.373.373,0,0,0-.746,0v1.441a1.492,1.492,0,0,0,1.492,1.492h5.142a1.492,1.492,0,0,0,1.492-1.492V43.411A.373.373,0,0,0,27.95,43.038Z" transform="translate(-16.433 -35.014)"/><path class="a" d="M35.982,27.935a.3.3,0,0,0,.444,0l1-1.331c.1-.132-.026-.3-.226-.3h-.619V23.541a.373.373,0,0,0-.746,0V26.3h-.623c-.2,0-.321.164-.222.3Z" transform="translate(-28.435 -18.849)"/></svg>