<svg xmlns="http://www.w3.org/2000/svg" width="30" height="30" viewBox="0 0 30 30"><defs><style>.a{fill:#bdbdbd;}</style></defs><path class="a" d="M5937.418,3316.366a15,15,0,1,1,14.947,8.571c-.458.042-.917.063-1.371.063A15,15,0,0,1,5937.418,3316.366Zm1.349-12.253a13.565,13.565,0,1,0,12.233-7.707A13.569,13.569,0,0,0,5938.768,3304.113Zm7.516,12.692a2.871,2.871,0,0,1-2.734-2.99v-2.888a.686.686,0,1,1,1.367,0v2.888a1.436,1.436,0,0,0,1.367,1.5h9.423a1.436,1.436,0,0,0,1.367-1.5v-2.888a.686.686,0,1,1,1.367,0v2.888a2.87,2.87,0,0,1-2.734,2.99Zm4.154-4.148-2-2.683c-.2-.265.049-.594.445-.594h1.249v-5.531a.747.747,0,1,1,1.495,0v5.531h1.241c.4,0,.65.344.452.609l-2,2.668a.6.6,0,0,1-.889,0Z" transform="translate(-5936 -3295)"/></svg>