<svg xmlns="http://www.w3.org/2000/svg" width="30" height="30" viewBox="0 0 30 30"><defs><style>.a{fill:#bdbdbd;}</style></defs><path class="a" d="M5937.418,3316.366a15,15,0,1,1,14.947,8.571c-.458.042-.917.063-1.371.063A15,15,0,0,1,5937.418,3316.366Zm1.349-12.253a13.565,13.565,0,1,0,12.233-7.707A13.569,13.569,0,0,0,5938.768,3304.113ZM5945,3317a1,1,0,1,1,0-2h13a1,1,0,1,1,0,2Zm0-4a1,1,0,1,1,0-2h13a1,1,0,1,1,0,2Zm0-4a1,1,0,1,1,0-2h13a1,1,0,1,1,0,2Zm0-4a1,1,0,1,1,0-2h13a1,1,0,1,1,0,2Z" transform="translate(-5936 -3295)"/></svg>