<svg xmlns="http://www.w3.org/2000/svg" width="24.619" height="18.601" viewBox="0 0 24.619 18.601"><defs><style>.a{fill:#6b6b6b;}</style></defs><g transform="translate(-5 -16)"><g transform="translate(5 16)"><path class="a" d="M6.641,968.362A1.65,1.65,0,0,0,5,970v15.319a1.65,1.65,0,0,0,1.641,1.641H27.978a1.65,1.65,0,0,0,1.641-1.641V970a1.65,1.65,0,0,0-1.641-1.641Zm0,1.094H27.978a.534.534,0,0,1,.547.547v13.079l-4.8-5.249a.555.555,0,0,0-.8,0l-3.915,4.153-5.668-6.333a.558.558,0,0,0-.5-.18.552.552,0,0,0-.316.171l-6.437,6.916V970a.534.534,0,0,1,.547-.547Zm12.583,2.736a2.188,2.188,0,1,0,2.188,2.188A2.2,2.2,0,0,0,19.224,972.192Zm0,1.094a1.094,1.094,0,1,1-1.094,1.094A1.086,1.086,0,0,1,19.224,973.286Zm-6.3,3.548,8.087,9.036H6.641a.534.534,0,0,1-.547-.547v-1.154Zm10.395,2.18,5.206,5.693v.616a.534.534,0,0,1-.547.547h-5.5l-2.735-3.06Z" transform="translate(-5 -968.362)"/></g></g></svg>