<svg xmlns="http://www.w3.org/2000/svg" width="19.974" height="19.974" viewBox="0 0 19.974 19.974"><defs><style>.a{fill:#6b6b6b;}</style></defs><g transform="translate(-11.026 -11.026)"><path class="a" d="M21.013,11.026A9.985,9.985,0,0,0,14.759,28.8L11.026,31h9.987a9.987,9.987,0,1,0,0-19.974Zm0,19.085H14.341l2.112-1.226a9.1,9.1,0,1,1,4.56,1.226Z" transform="translate(0 0)"/><path class="a" d="M35.915,31.062a4.853,4.853,0,0,0,0,9.706,4.924,4.924,0,0,0,2.739-.865.472.472,0,0,0,.137-.092l0,0h0a.469.469,0,0,0-.579-.733l0,0a3.9,3.9,0,1,1,1.5-2.213c-.015.06-.037.117-.055.176a.626.626,0,0,1-.607.468.635.635,0,0,1-.635-.635s0-.005,0-.008h0V34.155h0a.449.449,0,0,0-.868-.134,2.5,2.5,0,1,0,.179,3.616,1.551,1.551,0,0,0,2.632.086,3.391,3.391,0,0,0,.414-1.81A4.852,4.852,0,0,0,35.915,31.062Zm0,6.449a1.6,1.6,0,1,1,1.6-1.6A1.6,1.6,0,0,1,35.915,37.511Z" transform="translate(-14.902 -14.902)"/></g></svg>