<svg xmlns="http://www.w3.org/2000/svg" width="271" height="69.954" viewBox="0 0 271 69.954"><defs><style>.a{fill:#fff;opacity:0.2;}</style></defs><path class="a" d="M316.442,68.7V1.249a1.568,1.568,0,0,1,3.07,0V68.7a1.568,1.568,0,0,1-3.07,0Zm-75.209,0V1.249a1.568,1.568,0,0,1,3.07,0V68.7a1.568,1.568,0,0,1-3.07,0Zm-63.79,0V1.249a1.567,1.567,0,0,1,3.069,0V68.7a1.567,1.567,0,0,1-3.069,0Zm-75.209,0V1.249a1.568,1.568,0,0,1,3.07,0V68.7a1.568,1.568,0,0,1-3.07,0ZM305.7,64.957V5a1.568,1.568,0,0,1,3.07,0v59.96a1.568,1.568,0,0,1-3.07,0Zm-139,0V5a1.567,1.567,0,0,1,3.069,0v59.96a1.567,1.567,0,0,1-3.069,0Zm117.511-5V9.993a1.568,1.568,0,0,1,3.07,0V59.96a1.568,1.568,0,0,1-3.07,0Zm-32.233,0V9.993a1.568,1.568,0,0,1,3.07,0V59.96a1.568,1.568,0,0,1-3.07,0Zm-106.767,0V9.993a1.568,1.568,0,0,1,3.07,0V59.96a1.568,1.568,0,0,1-3.07,0Zm-32.233,0V9.993a1.568,1.568,0,0,1,3.07,0V59.96a1.568,1.568,0,0,1-3.07,0Zm117.511-1.249V11.243a1.568,1.568,0,0,1,3.07,0V58.711a1.568,1.568,0,0,1-3.07,0Zm-139,0V11.243a1.568,1.568,0,0,1,3.07,0V58.711a1.568,1.568,0,0,1-3.07,0Zm235.7-1.249V12.492a1.568,1.568,0,0,1,3.07,0V57.462a1.568,1.568,0,0,1-3.07,0Zm-32.233,0V12.492a1.568,1.568,0,0,1,3.07,0V57.462a1.568,1.568,0,0,1-3.07,0Zm-85.954,0V12.492a1.568,1.568,0,0,1,3.07,0V57.462a1.568,1.568,0,0,1-3.07,0Zm-20.813,0V12.492a1.567,1.567,0,0,1,3.069,0V57.462a1.567,1.567,0,0,1-3.069,0Zm-32.233,0V12.492a1.568,1.568,0,0,1,3.07,0V57.462a1.568,1.568,0,0,1-3.07,0ZM70,57.462V12.492a1.568,1.568,0,0,1,3.07,0V57.462a1.568,1.568,0,0,1-3.07,0Zm203.465-2.5V14.99a1.568,1.568,0,0,1,3.07,0V54.964a1.568,1.568,0,0,1-3.07,0Zm-139,0V14.99a1.568,1.568,0,0,1,3.07,0V54.964a1.568,1.568,0,0,1-3.07,0Zm128.255-3.748V18.737a1.568,1.568,0,0,1,3.07,0V51.216a1.568,1.568,0,0,1-3.07,0Zm-42.977,0V18.737a1.568,1.568,0,0,1,3.07,0V51.216a1.568,1.568,0,0,1-3.07,0Zm-96.023,0V18.737a1.568,1.568,0,0,1,3.07,0V51.216a1.568,1.568,0,0,1-3.07,0Zm-42.977,0V18.737a1.568,1.568,0,0,1,3.07,0V51.216a1.568,1.568,0,0,1-3.07,0Zm257.186-5V23.734a1.568,1.568,0,0,1,3.07,0V46.219a1.568,1.568,0,0,1-3.07,0Zm-139,0V23.734a1.567,1.567,0,0,1,3.069,0V46.219a1.567,1.567,0,0,1-3.069,0Z" transform="translate(-70)"/></svg>