<svg xmlns="http://www.w3.org/2000/svg" width="20.515" height="20.53" viewBox="0 0 20.515 20.53"><defs><style>.a{fill:#6b6b6b;}</style></defs><g transform="translate(69.563 133.908)"><path class="a" d="M24.058,23.532a2.009,2.009,0,0,0,0-2.97l-2.395-2.395a2,2,0,0,0-1.474-.668,2.077,2.077,0,0,0-1.474.668l-1.382,1.382c-.115-.069-.23-.115-.345-.184-.161-.069-.3-.161-.438-.23a14.647,14.647,0,0,1-3.569-3.247,7.916,7.916,0,0,1-1.174-1.865c.345-.322.691-.668,1.013-.99l.368-.368a2.156,2.156,0,0,0,.691-1.5,2.1,2.1,0,0,0-.691-1.5l-1.174-1.2c-.138-.138-.276-.276-.391-.414-.253-.276-.53-.553-.806-.806a2.052,2.052,0,0,0-1.451-.645,2.145,2.145,0,0,0-1.474.645l-1.5,1.5a3.153,3.153,0,0,0-.944,2A8.029,8.029,0,0,0,6,13.976,18.637,18.637,0,0,0,9.32,19.525a20.507,20.507,0,0,0,6.793,5.319,10.252,10.252,0,0,0,3.822,1.128h.276A3.243,3.243,0,0,0,22.7,24.89l.023-.023a8.091,8.091,0,0,1,.76-.783A4.326,4.326,0,0,0,24.058,23.532ZM22.7,23.278a10.015,10.015,0,0,0-.829.875,2.063,2.063,0,0,1-1.635.691h-.207a10.224,10.224,0,0,1-3.408-1.036,19.315,19.315,0,0,1-6.4-5.02,17.89,17.89,0,0,1-3.132-5.2A6.011,6.011,0,0,1,6.6,10.867a2.105,2.105,0,0,1,.6-1.29L8.676,8.1a.965.965,0,0,1,.668-.322.974.974,0,0,1,.668.322c.276.253.507.507.783.783l.414.414,1.174,1.174a1,1,0,0,1,.345.691,1,1,0,0,1-.345.691l-.368.368c-.368.368-.714.714-1.082,1.059l-.023.023a.889.889,0,0,0-.23.967c0,.023,0,.023.023.046a9.005,9.005,0,0,0,1.4,2.28,15.985,15.985,0,0,0,3.845,3.5c.184.115.368.207.53.3.161.069.3.161.438.23.023,0,.023.023.046.023a.938.938,0,0,0,.414.115.927.927,0,0,0,.645-.3l1.5-1.5a.829.829,0,0,1,1.313,0l2.395,2.395a.883.883,0,0,1-.023,1.382A5.382,5.382,0,0,1,22.7,23.278ZM16.067,9.623a.548.548,0,0,1,.668-.461,6.5,6.5,0,0,1,3.615,1.888,6.972,6.972,0,0,1,1.888,3.615.58.58,0,0,1-.461.668h-.092a.591.591,0,0,1-.576-.484,5.413,5.413,0,0,0-1.566-2.993,5.645,5.645,0,0,0-2.993-1.566A.548.548,0,0,1,16.067,9.623Zm8.75,5.066a9.99,9.99,0,0,0-2.763-5.342,9.835,9.835,0,0,0-5.342-2.763.548.548,0,0,1-.461-.668.558.558,0,0,1,.668-.461,11.026,11.026,0,0,1,9.027,9.027.58.58,0,0,1-.461.668h-.092A.551.551,0,0,1,24.817,14.689Z" transform="translate(-75 -139.35)"/></g></svg>