<svg xmlns="http://www.w3.org/2000/svg" width="30" height="30" viewBox="0 0 24.998 24.998"><defs><style>.a{fill:#fff;}.b{fill:#ff7541;}</style></defs><path class="a" d="M131.189,89.868l-.222,11.91,9.969-6.228Z" transform="translate(-121.892 -83.299)"/><path class="b" d="M12.5,0A12.5,12.5,0,1,0,25,12.5,12.447,12.447,0,0,0,12.5,0Zm-1.535,8.04,6.652,3.8a.719.719,0,0,1,0,1.243L10.89,16.957a.719.719,0,0,1-1.1-.585V8.624a.73.73,0,0,1,1.17-.585ZM15.787,12.5,11.255,9.866v5.19Z" transform="translate(0.001 0.001)"/></svg>