<svg width="28" height="28" viewBox="0 0 28 28" fill="none" xmlns="http://www.w3.org/2000/svg">
<rect x="1" y="1" width="26" height="26" rx="13" stroke="#1B305B" fill="#fff" stroke-width="2"/>
<path d="M17.25 10.5C18.4926 10.5 19.5 9.49264 19.5 8.25C19.5 7.00736 18.4926 6 17.25 6C16.0074 6 15 7.00736 15 8.25C15 9.49264 16.0074 10.5 17.25 10.5Z" stroke="#1B305B" stroke-width="2" stroke-linecap="round" stroke-linejoin="round"/>
<path d="M8.25 15.75C9.49264 15.75 10.5 14.7426 10.5 13.5C10.5 12.2574 9.49264 11.25 8.25 11.25C7.00736 11.25 6 12.2574 6 13.5C6 14.7426 7.00736 15.75 8.25 15.75Z" stroke="#1B305B" stroke-width="2" stroke-linecap="round" stroke-linejoin="round"/>
<path d="M17.25 21.0002C18.4926 21.0002 19.5 19.9929 19.5 18.7502C19.5 17.5076 18.4926 16.5002 17.25 16.5002C16.0074 16.5002 15 17.5076 15 18.7502C15 19.9929 16.0074 21.0002 17.25 21.0002Z" stroke="#1B305B" stroke-width="2" stroke-linecap="round" stroke-linejoin="round"/>
<path d="M10.1925 14.6326L15.315 17.6176" stroke="#1B305B" stroke-width="2" stroke-linecap="round" stroke-linejoin="round"/>
<path d="M15.3075 9.38232L10.1925 12.3673" stroke="#1B305B" stroke-width="2" stroke-linecap="round" stroke-linejoin="round"/>
</svg>
