<svg xmlns="http://www.w3.org/2000/svg" width="124.694" height="69.954" viewBox="0 0 124.694 69.954"><defs><style>.a{fill:#a1575d;opacity:0.2;}</style></defs><path class="a" d="M31.9,0a1.361,1.361,0,0,0-1.45,1.249V68.7a1.466,1.466,0,0,0,2.9,0V1.249A1.361,1.361,0,0,0,31.9,0Zm71.046,0a1.361,1.361,0,0,0-1.45,1.249V68.7a1.466,1.466,0,0,0,2.9,0V1.249A1.361,1.361,0,0,0,102.945,0ZM92.8,3.748A1.361,1.361,0,0,0,91.345,5v59.96a1.466,1.466,0,0,0,2.9,0V5A1.361,1.361,0,0,0,92.8,3.748Zm-50.747,5A1.361,1.361,0,0,0,40.6,9.993V59.96a1.466,1.466,0,0,0,2.9,0V9.993A1.361,1.361,0,0,0,42.048,8.744Zm30.448,0a1.361,1.361,0,0,0-1.45,1.249V59.96a1.466,1.466,0,0,0,2.9,0V9.993A1.361,1.361,0,0,0,72.5,8.744ZM21.749,9.993a1.361,1.361,0,0,0-1.45,1.249V58.711a1.466,1.466,0,0,0,2.9,0V11.243A1.361,1.361,0,0,0,21.749,9.993ZM1.45,11.243A1.361,1.361,0,0,0,0,12.492v44.97a1.361,1.361,0,0,0,1.45,1.249A1.361,1.361,0,0,0,2.9,57.462V12.492a1.361,1.361,0,0,0-1.45-1.249Zm81.2,0a1.361,1.361,0,0,0-1.45,1.249v44.97a1.466,1.466,0,0,0,2.9,0V12.492A1.361,1.361,0,0,0,82.646,11.243Zm30.448,0a1.361,1.361,0,0,0-1.45,1.249v44.97a1.466,1.466,0,0,0,2.9,0V12.492A1.361,1.361,0,0,0,113.094,11.243Zm-50.747,2.5A1.361,1.361,0,0,0,60.9,14.99V54.963a1.466,1.466,0,0,0,2.9,0V14.99A1.361,1.361,0,0,0,62.347,13.741ZM11.6,17.488a1.361,1.361,0,0,0-1.45,1.249V51.216a1.361,1.361,0,0,0,1.45,1.249,1.361,1.361,0,0,0,1.45-1.249V18.738A1.361,1.361,0,0,0,11.6,17.488Zm40.6,0a1.361,1.361,0,0,0-1.45,1.249V51.216a1.466,1.466,0,0,0,2.9,0V18.738A1.361,1.361,0,0,0,52.2,17.488Zm71.046,5a1.361,1.361,0,0,0-1.45,1.249V46.219a1.466,1.466,0,0,0,2.9,0V23.734A1.361,1.361,0,0,0,123.244,22.485Z"/></svg>