<svg xmlns="http://www.w3.org/2000/svg" width="32.094" height="15.21" viewBox="0 0 32.094 15.21"><defs><style>.a{fill:#6b6b6b;}</style></defs><g transform="translate(0 -26.305)"><path class="a" d="M11.8,26.3A3.405,3.405,0,0,0,8.947,31.57L5.266,35.252a3.413,3.413,0,1,0,1,1l3.682-3.682a3.4,3.4,0,0,0,3.717,0l3.74,3.741a3.408,3.408,0,1,0,5.746-.059l3.682-3.682a3.412,3.412,0,1,0-1-1l-3.682,3.682a3.4,3.4,0,0,0-3.775.038l-3.72-3.72A3.405,3.405,0,0,0,11.8,26.3Zm0,1.409a2,2,0,1,1-2,2,2,2,0,0,1,2-2Zm16.885,0a2,2,0,1,1-2,2,2,2,0,0,1,2-2Zm-5.743,2.539a.7.7,0,0,0-.5.206l-1.433,1.433a.7.7,0,1,0,1,1l1.433-1.433a.7.7,0,0,0-.5-1.2Zm-12.36,4.5a.7.7,0,0,0-.5.206L8.652,36.39a.7.7,0,1,0,1,1l1.433-1.433a.7.7,0,0,0-.5-1.2Zm9.709,1.356a2,2,0,1,1-2,2,2,2,0,0,1,2-2Zm-16.885,0a2,2,0,1,1-2,2A2,2,0,0,1,3.408,36.107Z" transform="translate(0)"/></g></svg>