<svg width="16" height="18" viewBox="0 0 16 18" fill="none" xmlns="http://www.w3.org/2000/svg">
<path d="M15.2085 7.01227C13.5978 3.81517 9.99294 2.19825 6.54143 2.78622L7.46183 1.13255C7.69193 0.765065 7.53853 0.287338 7.15503 0.103596C6.77153 -0.116893 6.27298 0.0300998 6.08123 0.397582L4.20207 3.74167C4.20207 3.74167 3.78022 4.40314 4.43217 4.69713L7.92203 6.49779C8.03708 6.57129 8.19048 6.60804 8.30553 6.60804C8.57398 6.60804 8.88078 6.46105 8.99583 6.20381C9.22593 5.83633 9.07253 5.3586 8.68903 5.17486L6.88658 4.2194C9.60944 3.77842 12.4473 5.10136 13.7129 7.60024C15.2469 10.6503 13.9046 14.3252 10.7216 15.7584C9.18758 16.4566 7.46183 16.5668 5.85113 16.0156C4.24042 15.4644 2.93652 14.3619 2.20787 12.892C1.47922 11.4221 1.36417 9.76839 1.93942 8.22496C2.09282 7.82073 1.86272 7.37975 1.44087 7.23276C1.05737 7.15926 0.597166 7.37975 0.443765 7.78398C-0.246536 9.73164 -0.131486 11.7895 0.788916 13.627C1.70932 15.4644 3.32002 16.8608 5.35258 17.559C6.23463 17.853 7.11668 18 7.99873 18C9.18758 18 10.3764 17.7428 11.4502 17.2283C15.4386 15.3909 17.1261 10.7973 15.2085 7.01227Z" fill="#163058"/>
</svg>
