<svg xmlns="http://www.w3.org/2000/svg" width="55.011" height="64" viewBox="0 0 55.011 64"><defs><style>.a{fill:#ffda59;}.b,.c{fill:#8e8e8e;}.c{fill-rule:evenodd;}</style></defs><circle class="a" cx="9.392" cy="9.392" r="9.392" transform="translate(35.153 1.291)"/><path class="b" d="M0,7.334V61.54H45.618V20.617H44.143V60.064H1.476V8.676H5.635V23.435l5.1-5.1h0l5.1,5.1V8.676H32.067V7.2H0Z" transform="translate(0 2.46)"/><path class="b" d="M4.2,22.2v1.476H38.414V22.2Z" transform="translate(1.435 7.586)"/><path class="b" d="M4.2,25.3v1.476H38.414V25.3Z" transform="translate(1.435 8.646)"/><path class="b" d="M4.2,28.5v1.476H38.414V28.5Z" transform="translate(1.435 9.739)"/><path class="b" d="M4.2,31.7v1.476H38.414V31.7Z" transform="translate(1.435 10.833)"/><path class="b" d="M4.2,34.9v1.476H38.414V34.9Z" transform="translate(1.435 11.926)"/><path class="b" d="M4.2,38.6v1.476H21.24V38.6Z" transform="translate(1.435 13.19)"/><path class="b" d="M24.8,41.7v1.476h6.574V41.7Z" transform="translate(8.291 14.25)"/><path class="b" d="M36.065,0A10.465,10.465,0,1,0,46.531,10.465,10.465,10.465,0,0,0,36.065,0Zm0,1.476a8.99,8.99,0,1,1-8.99,8.99,8.99,8.99,0,0,1,8.99-8.99Z" transform="translate(8.48)"/><path class="c" d="M29.1,9.733l2.549,2.549,1.073,1.073L40.5,5.573,39.431,4.5l-6.709,6.709L30.173,8.659Z" transform="translate(9.676 1.538)"/></svg>