<svg xmlns="http://www.w3.org/2000/svg" width="60" height="60" viewBox="0 0 60 60"><defs><style>.a{fill:#ffde57;}.b{fill:#8d8d8d;}</style></defs><g transform="translate(0)"><path class="a" d="M67.553,52.814H57.72L46.657,46.539l-2.107.2L43.672,48.7,44.9,50.657l8.78,5.294,2.634,4.706.176,5.883h16.33L73,60.657l3.336-4.706,8.955-5.49,1.229-2.549-1.054-1.373-1.4-.392L75.1,51.834l-2.458.784Z" transform="translate(-35.108 -37.098)"/><circle class="b" cx="6.601" cy="6.601" r="6.601" transform="translate(23.303)"/><path class="b" d="M571.715,168.1a5.541,5.541,0,0,1,1.827,0v-1.092a1.937,1.937,0,0,0-1.827-2.031h-10.5v-3.822c.191-1.864,3.381-4.937,3.381-4.937s4.949-2.8,8.016-4.886c2.658-1.8,2.486-3.451,1.818-5.012a2.4,2.4,0,0,0-2.272-1.627,4.344,4.344,0,0,0-1.954.551l-10.211,6.023H555.08l-.527,1.011a5.061,5.061,0,0,1,1.477,1.2l.1-.177h4.3l10.628-6.262a2.666,2.666,0,0,1,1.156-.346.6.6,0,0,1,.631.478c.357.834.553,1.291-1.129,2.429-2.99,2.033-8.136,4.95-8.136,4.95l-.169.163c-1.125,1.088-3.776,3.868-4.018,6.272v3.995h-5.937v-3.22a4.1,4.1,0,0,0,2.284-3.89c0-2.239-1.434-4.062-3.2-4.062s-3.2,1.823-3.2,4.062a4.1,4.1,0,0,0,2.284,3.89v3.22h-6.851v-4.007c-.242-2.351-2.453-5.428-2.891-6.022l-.242-.325s-5.293-2.991-8.285-5.022c-1.681-1.143-1.484-1.6-1.123-2.427a.6.6,0,0,1,.63-.477,2.664,2.664,0,0,1,1.156.345l10.614,6.256h4.334l.1.178a5.081,5.081,0,0,1,1.484-1.193l-.53-1.016h-4.928l-10.262-6.048a4.369,4.369,0,0,0-1.964-.554,2.409,2.409,0,0,0-2.284,1.635c-.676,1.569-.849,3.225,1.827,5.037,3.083,2.1,8.056,4.91,8.056,4.91s2.284,3.087,2.484,4.961v3.768h-9.591a1.937,1.937,0,0,0-1.827,2.031V168.1a5.514,5.514,0,0,1,1.827,0v-1.092h38.364Z" transform="translate(-522.536 -136.466)"/><path class="b" d="M574.71,290a8.354,8.354,0,0,1,2.031,1.087v-9.719h6.54a7.617,7.617,0,0,1,1.077-2.031H574.2a7.617,7.617,0,0,1,1.092,2.031h0a7.526,7.526,0,0,1-.584,6.317Z" transform="translate(-559.433 -248.021)"/><path class="b" d="M492.013,359.713a1.019,1.019,0,0,0,1.347-.963V348.086a4.474,4.474,0,0,1,4.362-4.57h7.526a4.474,4.474,0,0,1,4.362,4.57v10.621a1.04,1.04,0,0,0,.685,1.006,1.019,1.019,0,0,0,1.347-.963V348.086a6.5,6.5,0,0,0-6.393-6.6h-7.526a6.5,6.5,0,0,0-6.393,6.6v10.621a1.04,1.04,0,0,0,.685,1.006Z" transform="translate(-491.328 -299.767)"/><path class="b" d="M514.081,416.61v-1.946a1.04,1.04,0,0,0-.685-1.006,1.019,1.019,0,0,0-1.347.963v2.031a1.019,1.019,0,0,0,1.347.963,1.04,1.04,0,0,0,.685-1.006Z" transform="translate(-507.986 -357.745)"/><path class="b" d="M565.873,416.653v-1.989a1.04,1.04,0,0,0-.685-1.006,1.019,1.019,0,0,0-1.347.963v1.988a1.04,1.04,0,0,0,.685,1.006,1.019,1.019,0,0,0,1.347-.963Z" transform="translate(-550.751 -357.745)"/><path class="b" d="M519.683,284.943a5.586,5.586,0,1,0-5.586-5.586A5.586,5.586,0,0,0,519.683,284.943Z" transform="translate(-509.633 -243.412)"/><path class="b" d="M733.139,341.484h-7.526a6.5,6.5,0,0,0-6.393,6.6v10.621a1.04,1.04,0,0,0,.685,1.006,1.019,1.019,0,0,0,1.347-.963V348.085a4.474,4.474,0,0,1,4.362-4.57h7.526a4.474,4.474,0,0,1,4.362,4.57v10.621a1.04,1.04,0,0,0,.685,1.006,1.019,1.019,0,0,0,1.347-.963V348.085A6.5,6.5,0,0,0,733.139,341.484Z" transform="translate(-679.533 -299.767)"/><path class="b" d="M741.971,416.653v-1.989a1.04,1.04,0,0,0-.685-1.006,1.019,1.019,0,0,0-1.347.963v1.988a1.04,1.04,0,0,0,.685,1.006,1.019,1.019,0,0,0,1.347-.963Z" transform="translate(-695.061 -357.745)"/><path class="b" d="M793.766,416.61v-1.946a1.04,1.04,0,0,0-.685-1.006,1.019,1.019,0,0,0-1.347.963v2.031a1.019,1.019,0,0,0,1.347.963A1.04,1.04,0,0,0,793.766,416.61Z" transform="translate(-737.829 -357.745)"/><path class="b" d="M747.575,284.943a5.586,5.586,0,1,0-5.586-5.586,5.586,5.586,0,0,0,5.586,5.586Z" transform="translate(-697.838 -243.412)"/><path class="b" d="M697.227,281.363a7.616,7.616,0,0,1,1.077-2.031H688.147a7.618,7.618,0,0,1,1.092,2.031h6.525V291.1A8.353,8.353,0,0,1,697.8,290V287.68a7.526,7.526,0,0,1-.574-6.317Z" transform="translate(-653.072 -248.021)"/><path class="b" d="M619.194,341.484h-7.526a6.5,6.5,0,0,0-6.393,6.6v10.621a1.04,1.04,0,0,0,.685,1.006,1.019,1.019,0,0,0,1.347-.963V348.085a4.474,4.474,0,0,1,4.362-4.57h7.526a4.474,4.474,0,0,1,4.362,4.57v10.621a1.04,1.04,0,0,0,.685,1.006,1.019,1.019,0,0,0,1.347-.963V348.085A6.5,6.5,0,0,0,619.194,341.484Z" transform="translate(-585.431 -299.767)"/><path class="b" d="M628.025,416.653v-1.989a1.04,1.04,0,0,0-.685-1.006,1.019,1.019,0,0,0-1.347.963v1.988a1.04,1.04,0,0,0,.685,1.006,1.019,1.019,0,0,0,1.347-.963Z" transform="translate(-601.684 -357.745)"/><path class="b" d="M679.818,416.653v-1.989a1.04,1.04,0,0,0-.685-1.006,1.019,1.019,0,0,0-1.347.963v1.988a1.04,1.04,0,0,0,.685,1.006,1.019,1.019,0,0,0,1.347-.963Z" transform="translate(-644.127 -357.745)"/><path class="b" d="M639.215,279.357a5.586,5.586,0,1,0-5.586,5.586,5.586,5.586,0,0,0,5.586-5.586Z" transform="translate(-603.725 -243.412)"/></g></svg>