<svg xmlns="http://www.w3.org/2000/svg" width="33.524" height="46.355" viewBox="0 0 33.524 46.355"><defs><style>.a{fill:#ffde57;}.b{fill:#6b6b6b;}</style></defs><g transform="translate(-1643.878 -354)"><path class="a" d="M2.736,7.77h0A4.052,4.052,0,0,1,0,4.041,4.273,4.273,0,0,1,4.463,0,4.273,4.273,0,0,1,8.927,4.041,4.049,4.049,0,0,1,6.193,7.768a2.363,2.363,0,0,0,.3-1.154,2.124,2.124,0,0,0-2.029-2.2,2.125,2.125,0,0,0-2.029,2.2,2.339,2.339,0,0,0,.3,1.155Z" transform="translate(1656.149 366.983)"/><g transform="translate(1643.878 354)"><g transform="translate(0 0)"><path class="b" d="M19.168,17.058H14.684a2.422,2.422,0,1,0,0,.695h4.481a7.459,7.459,0,0,0,.83,3.091L16.12,23.082a2.449,2.449,0,1,0,.34.606l3.882-2.243a7.476,7.476,0,0,0,3.842,3.028l.019,5.16-.72-.717a2.63,2.63,0,0,0-3.7.02c-1.094,1.112-.517,2.51-.1,3.532L22.1,38.3a9.126,9.126,0,0,0,2.164,3.133.688.688,0,0,0-.189.47v4.4a.7.7,0,0,0,.695.695H36.777a.7.7,0,0,0,.695-.695V41.9a.687.687,0,0,0-.492-.654,9.121,9.121,0,0,0,2.69-6.486l-.021-4.244a2.318,2.318,0,0,0-3.61-1.913l0-.588a2.315,2.315,0,0,0-3.677-1.864,2.31,2.31,0,0,0-3.528-1.358v-.23a7.441,7.441,0,0,0,4.118-3.111l3.872,2.232a2.393,2.393,0,1,0,.341-.605l-3.868-2.229a7.482,7.482,0,0,0,.824-3.1H38.6a2.42,2.42,0,1,0,0-.695H34.114a7.431,7.431,0,0,0-.825-3.089l3.87-2.236a2.45,2.45,0,1,0-.34-.606l-3.879,2.241a7.541,7.541,0,0,0-2.262-2.262l2.237-3.871a2.445,2.445,0,1,0-.6-.353l-2.239,3.876a7.433,7.433,0,0,0-3.089-.824V5.452a2.421,2.421,0,1,0-.695,0v4.48a7.431,7.431,0,0,0-3.094.827L20.964,6.88a2.4,2.4,0,1,0-.6.354L22.6,11.109a7.539,7.539,0,0,0-2.259,2.262L16.46,11.13a2.4,2.4,0,1,0-.342.605l3.872,2.237A7.432,7.432,0,0,0,19.168,17.058Zm-4.259,8.714a1.415,1.415,0,0,1-1.883-.5,1.378,1.378,0,1,1,1.883.5Zm24.84-2.388a1.38,1.38,0,0,1,.5,1.883,1.414,1.414,0,0,1-1.883.5,1.379,1.379,0,0,1,1.378-2.388ZM38.37,9.043a1.379,1.379,0,0,1,1.379,2.388,1.415,1.415,0,0,1-1.883-.5A1.38,1.38,0,0,1,38.37,9.043ZM32.617,4.3A1.378,1.378,0,1,1,35,5.677a1.414,1.414,0,0,1-1.883.5A1.377,1.377,0,0,1,32.617,4.3ZM18.275,5.677a1.378,1.378,0,1,1,1.883.5A1.38,1.38,0,0,1,18.275,5.677Zm-4.745,5.754a1.379,1.379,0,1,1,1.883-.5A1.415,1.415,0,0,1,13.531,11.431ZM12.3,18.786a1.379,1.379,0,1,1,1.378-1.379A1.38,1.38,0,0,1,12.3,18.786Zm16.51.961a2.335,2.335,0,0,0-2.348-2.316h0l-.132,0a2.37,2.37,0,0,0-2.162,2.427v.217a3.649,3.649,0,1,1,4.644.248ZM36.082,45.61H25.46V42.6H36.082ZM28.837,26.723a1.275,1.275,0,1,1,2.55,0l.007,1.321a.521.521,0,0,0,.521.518h0a.521.521,0,0,0,.52-.521,1.279,1.279,0,0,1,2.557-.018l.014,2.508a.521.521,0,0,0,.521.518.552.552,0,0,0,.521-.521,1.279,1.279,0,0,1,2.557,0l.021,4.238a8.092,8.092,0,0,1-3.167,6.441H25.617A8.074,8.074,0,0,1,23.058,37.9L20.647,32.07c-.508-1.232-.646-1.872-.13-2.4a1.587,1.587,0,0,1,2.234-.016l1.612,1.6a.521.521,0,0,0,.889-.372L25.21,19.854a1.344,1.344,0,0,1,1.18-1.38l.071,0a1.292,1.292,0,0,1,1.306,1.277l.028,6.975a.521.521,0,0,0,.521.52h0A.521.521,0,0,0,28.837,26.723ZM40.981,16.029A1.379,1.379,0,1,1,39.6,17.407,1.38,1.38,0,0,1,40.981,16.029ZM25.261,3.066A1.378,1.378,0,1,1,26.64,4.445,1.38,1.38,0,0,1,25.261,3.066Zm1.38,7.891a6.45,6.45,0,0,1,2.186,12.518l-.011-2.324a4.341,4.341,0,1,0-4.645-.184l.008,2.4a6.447,6.447,0,0,1,2.462-12.407Z" transform="translate(-9.878 -0.645)"/></g></g></g></svg>