<?xml version="1.0" encoding="UTF-8"?><svg id="_Ñëîé_1" xmlns="http://www.w3.org/2000/svg" viewBox="0 0 54 54"><defs><style>.cls-1{fill:#ccc9ca;}.cls-1,.cls-2,.cls-3,.cls-4,.cls-5,.cls-6{fill-rule:evenodd;}.cls-7,.cls-3{fill:#8b8b8b;}.cls-2{opacity:.15;}.cls-4{fill:#c1ac53;}.cls-5{fill:#f5d963;}.cls-6{fill:#f0f0f0;}</style></defs><path class="cls-5" d="M11.26,24.19c1.41,0,2.55,1.14,2.55,2.55s-1.14,2.55-2.55,2.55-2.55-1.14-2.55-2.55,1.14-2.55,2.55-2.55h0Zm0,13.67c1.41,0,2.55,1.14,2.55,2.55s-1.14,2.55-2.55,2.55-2.55-1.14-2.55-2.55,1.14-2.55,2.55-2.55h0Zm0-6.79c1.41,0,2.55,1.14,2.55,2.55s-1.14,2.55-2.55,2.55-2.55-1.14-2.55-2.55,1.14-2.55,2.55-2.55Z"/><path class="cls-1" d="M18.69,24.19c1.41,0,2.55,1.14,2.55,2.55s-1.14,2.55-2.55,2.55-2.55-1.14-2.55-2.55,1.14-2.55,2.55-2.55h0Zm7.43,13.67c1.41,0,2.55,1.14,2.55,2.55s-1.14,2.55-2.55,2.55-2.55-1.14-2.55-2.55,1.14-2.55,2.55-2.55h0Zm0-13.67c1.41,0,2.55,1.14,2.55,2.55s-1.14,2.55-2.55,2.55-2.55-1.14-2.55-2.55,1.14-2.55,2.55-2.55h0Zm0,6.89c1.41,0,2.55,1.14,2.55,2.55s-1.14,2.55-2.55,2.55-2.55-1.14-2.55-2.55,1.14-2.55,2.55-2.55h0Zm-7.43,6.79c1.41,0,2.55,1.14,2.55,2.55s-1.14,2.55-2.55,2.55-2.55-1.14-2.55-2.55,1.14-2.55,2.55-2.55h0Zm0-6.79c1.41,0,2.55,1.14,2.55,2.55s-1.14,2.55-2.55,2.55-2.55-1.14-2.55-2.55,1.14-2.55,2.55-2.55Z"/><path class="cls-3" d="M11.26,23.77c.82,0,1.57,.33,2.11,.87,.54,.54,.87,1.28,.87,2.11s-.33,1.57-.87,2.11c-.54,.54-1.28,.87-2.11,.87s-1.57-.33-2.11-.87c-.54-.54-.87-1.28-.87-2.11s.33-1.57,.87-2.11c.54-.54,1.28-.87,2.11-.87h0Zm7.43,0c.82,0,1.57,.33,2.11,.87,.54,.54,.87,1.28,.87,2.11s-.33,1.57-.87,2.11c-.54,.54-1.28,.87-2.11,.87s-1.57-.33-2.11-.87c-.54-.54-.87-1.28-.87-2.11s.33-1.57,.87-2.11c.54-.54,1.28-.87,2.11-.87h0Zm1.5,1.47c-.38-.38-.92-.62-1.5-.62s-1.12,.24-1.5,.62c-.38,.38-.62,.92-.62,1.5s.24,1.12,.62,1.5c.38,.38,.92,.62,1.5,.62s1.12-.24,1.5-.62c.38-.38,.62-.92,.62-1.5s-.24-1.12-.62-1.5h0Zm5.93,12.2c.82,0,1.57,.33,2.11,.87,.54,.54,.87,1.28,.87,2.11s-.33,1.57-.87,2.11c-.54,.54-1.28,.87-2.11,.87s-1.57-.33-2.11-.87c-.54-.54-.87-1.28-.87-2.11s.33-1.57,.87-2.11c.54-.54,1.28-.87,2.11-.87h0Zm1.5,1.47c-.38-.38-.92-.62-1.5-.62s-1.12,.24-1.5,.62c-.38,.38-.62,.92-.62,1.5s.24,1.12,.62,1.5c.38,.38,.92,.62,1.5,.62s1.12-.24,1.5-.62c.38-.38,.62-.92,.62-1.5s-.24-1.12-.62-1.5h0Zm-1.5-15.15c.82,0,1.57,.33,2.11,.87,.54,.54,.87,1.28,.87,2.11s-.33,1.57-.87,2.11c-.54,.54-1.28,.87-2.11,.87s-1.57-.33-2.11-.87c-.54-.54-.87-1.28-.87-2.11s.33-1.57,.87-2.11c.54-.54,1.28-.87,2.11-.87h0Zm1.5,1.47c-.38-.38-.92-.62-1.5-.62s-1.12,.24-1.5,.62c-.38,.38-.62,.92-.62,1.5s.24,1.12,.62,1.5c.38,.38,.92,.62,1.5,.62s1.12-.24,1.5-.62c.38-.38,.62-.92,.62-1.5s-.24-1.12-.62-1.5h0Zm-1.5,5.41c.82,0,1.57,.33,2.11,.87,.54,.54,.87,1.28,.87,2.11s-.33,1.57-.87,2.11c-.54,.54-1.28,.87-2.11,.87s-1.57-.33-2.11-.87c-.54-.54-.87-1.28-.87-2.11s.33-1.57,.87-2.11c.54-.54,1.28-.87,2.11-.87h0Zm1.5,1.47c-.38-.38-.92-.62-1.5-.62s-1.12,.24-1.5,.62c-.38,.38-.62,.92-.62,1.5s.24,1.12,.62,1.5c.38,.38,.92,.62,1.5,.62s1.12-.24,1.5-.62c.38-.38,.62-.92,.62-1.5s-.24-1.12-.62-1.5h0Zm-8.94,5.31c.82,0,1.57,.33,2.11,.87,.54,.54,.87,1.28,.87,2.11s-.33,1.57-.87,2.11c-.54,.54-1.28,.87-2.11,.87s-1.57-.33-2.11-.87c-.54-.54-.87-1.28-.87-2.11s.33-1.57,.87-2.11c.54-.54,1.28-.87,2.11-.87h0Zm1.5,1.47c-.38-.38-.92-.62-1.5-.62s-1.12,.24-1.5,.62c-.38,.38-.62,.92-.62,1.5s.24,1.12,.62,1.5c.38,.38,.92,.62,1.5,.62s1.12-.24,1.5-.62c.38-.38,.62-.92,.62-1.5s-.24-1.12-.62-1.5h0Zm-1.5-8.26c.82,0,1.57,.33,2.11,.87,.54,.54,.87,1.28,.87,2.11s-.33,1.57-.87,2.11c-.54,.54-1.28,.87-2.11,.87s-1.57-.33-2.11-.87c-.54-.54-.87-1.28-.87-2.11s.33-1.57,.87-2.11c.54-.54,1.28-.87,2.11-.87h0Zm1.5,1.47c-.38-.38-.92-.62-1.5-.62s-1.12,.24-1.5,.62c-.38,.38-.62,.92-.62,1.5s.24,1.12,.62,1.5c.38,.38,.92,.62,1.5,.62s1.12-.24,1.5-.62c.38-.38,.62-.92,.62-1.5s-.24-1.12-.62-1.5h0Zm-7.43-6.89c-.38-.38-.92-.62-1.5-.62s-1.12,.24-1.5,.62c-.38,.38-.62,.92-.62,1.5s.24,1.12,.62,1.5c.38,.38,.92,.62,1.5,.62s1.12-.24,1.5-.62c.38-.38,.62-.92,.62-1.5s-.24-1.12-.62-1.5h0Zm-1.5,12.2c.82,0,1.57,.33,2.11,.87,.54,.54,.87,1.28,.87,2.11s-.33,1.57-.87,2.11c-.54,.54-1.28,.87-2.11,.87s-1.57-.33-2.11-.87c-.54-.54-.87-1.28-.87-2.11s.33-1.57,.87-2.11c.54-.54,1.28-.87,2.11-.87h0Zm1.5,1.47c-.38-.38-.92-.62-1.5-.62s-1.12,.24-1.5,.62c-.38,.38-.62,.92-.62,1.5s.24,1.12,.62,1.5c.38,.38,.92,.62,1.5,.62s1.12-.24,1.5-.62c.38-.38,.62-.92,.62-1.5s-.24-1.12-.62-1.5h0Zm-1.5-8.26c.82,0,1.57,.33,2.11,.87,.54,.54,.87,1.28,.87,2.11s-.33,1.57-.87,2.11c-.54,.54-1.28,.87-2.11,.87s-1.57-.33-2.11-.87c-.54-.54-.87-1.28-.87-2.11s.33-1.57,.87-2.11c.54-.54,1.28-.87,2.11-.87h0Zm1.5,1.47c-.38-.38-.92-.62-1.5-.62s-1.12,.24-1.5,.62c-.38,.38-.62,.92-.62,1.5s.24,1.12,.62,1.5c.38,.38,.92,.62,1.5,.62s1.12-.24,1.5-.62c.38-.38,.62-.92,.62-1.5s-.24-1.12-.62-1.5Z"/><g><path class="cls-3" d="M5.58,49.44c-1.19,0-2.3-.46-3.15-1.31-.84-.84-1.31-1.96-1.31-3.15V11.32c0-2.46,2-4.45,4.45-4.45H39.24c2.46,0,4.45,2,4.45,4.45v6.41h-.38c-2.31,0-4.55,.52-6.66,1.56l-.08,.04H2.73v25.65c0,.76,.3,1.47,.84,2.01s1.26,.84,2.01,.84H39.24c.2,0,.4-.02,.62-.07l.08-.02,.08,.02c.49,.11,.99,.19,1.49,.25l1.02,.12-.86,.56c-.73,.48-1.57,.74-2.44,.74H5.58Z"/><path class="cls-7" d="M39.24,7.24c2.24,0,4.08,1.83,4.08,4.08v6.04c-2.45,0-4.76,.59-6.82,1.6H2.35v26.03c0,.89,.36,1.69,.95,2.28,.58,.59,1.39,.95,2.28,.95H39.24c.24,0,.47-.03,.7-.08,.5,.11,1.01,.2,1.53,.26-.64,.42-1.41,.67-2.23,.67H5.58c-1.12,0-2.14-.46-2.88-1.2-.74-.74-1.2-1.76-1.2-2.88,0-11.22,0-22.44,0-33.67,0-2.24,1.83-4.08,4.08-4.08H39.24m0-.75H5.58C2.92,6.49,.75,8.66,.75,11.32V28.15s0,16.83,0,16.83c0,1.29,.5,2.5,1.42,3.41,.91,.91,2.13,1.42,3.41,1.42H39.24c.94,0,1.85-.28,2.64-.8l1.71-1.13-2.04-.24c-.49-.06-.98-.14-1.46-.25l-.16-.04-.16,.04c-.19,.04-.37,.06-.54,.06H5.58c-.66,0-1.28-.26-1.75-.73-.47-.47-.73-1.09-.73-1.75V19.7H36.68l.16-.08c2.06-1.01,4.24-1.52,6.49-1.52h.75v-6.79c0-2.66-2.17-4.83-4.83-4.83h0Z"/></g><path class="cls-5" d="M42.47,17.4v-6.08c0-.89-.36-1.69-.95-2.28-.59-.58-1.39-.95-2.28-.95H5.58c-.89,0-1.69,.36-2.28,.95-.58,.59-.95,1.39-.95,2.28v6.78H38.58c1.24-.4,2.54-.63,3.89-.7Z"/><path class="cls-3" d="M42.27,24.31c-1.98,.24-3.75,1.14-5.09,2.48-1.34,1.34-2.24,3.11-2.48,5.09,1.01,.11,1.76,.54,1.76,1.05s-.75,.94-1.76,1.05c.24,1.98,1.14,3.75,2.48,5.09,1.34,1.34,3.11,2.24,5.09,2.48,.11-1.01,.54-1.76,1.05-1.76s.94,.75,1.05,1.76c1.98-.24,3.75-1.14,5.09-2.48,1.34-1.34,2.24-3.11,2.48-5.09-1.01-.11-1.76-.54-1.76-1.05s.75-.94,1.76-1.05c-.24-1.98-1.14-3.75-2.48-5.09-1.34-1.34-3.11-2.24-5.09-2.48-.11,1.01-.54,1.76-1.05,1.76s-.94-.75-1.05-1.76h0Zm.41,9.29s-.09-.1-.13-.15h0s-.01-.02-.01-.02h0s-.02-.03-.02-.04h0c-.07-.13-.12-.29-.12-.45v-4.07c0-.51,.41-.92,.92-.92s.92,.41,.92,.92v3.69l3.88,3.88c.36,.36,.36,.94,0,1.31-.36,.36-.94,.36-1.31,0l-4.14-4.14h0Zm-6.8-8.11c1.91-1.91,4.54-3.09,7.45-3.09s5.54,1.18,7.45,3.09c1.91,1.91,3.09,4.54,3.09,7.45s-1.18,5.54-3.09,7.45c-1.91,1.91-4.54,3.09-7.45,3.09s-5.54-1.18-7.45-3.09c-1.91-1.91-3.09-4.54-3.09-7.45s1.18-5.54,3.09-7.45Z"/><path class="cls-4" d="M14.88,11.19c1.34,0,2.43,1.09,2.43,2.43s-1.09,2.43-2.43,2.43-2.43-1.09-2.43-2.43,1.09-2.43,2.43-2.43h0Zm15.06,0c1.34,0,2.43,1.09,2.43,2.43s-1.09,2.43-2.43,2.43-2.43-1.09-2.43-2.43,1.09-2.43,2.43-2.43Z"/><path class="cls-2" d="M15.35,13.55c0,.73-.56,1.33-1.26,1.33s-1.26-.6-1.26-1.33V7.24h2.51v6.31h0Zm15.06,0c0,.73-.56,1.33-1.26,1.33s-1.26-.6-1.26-1.33V7.24h2.51v6.31Z"/><g><path class="cls-3" d="M29.94,15.68c-.55,0-1.07-.21-1.45-.6-.39-.39-.6-.91-.6-1.45V6.62c0-.55,.21-1.06,.6-1.45,.39-.39,.91-.6,1.45-.6s1.06,.21,1.45,.6c.39,.39,.6,.9,.6,1.45v7.01c0,.55-.21,1.07-.6,1.45-.39,.39-.9,.6-1.45,.6Zm0-9.52c-.12,0-.24,.05-.32,.13-.09,.09-.13,.2-.13,.32v7.01c0,.12,.05,.24,.13,.32,.09,.08,.2,.13,.32,.13s.24-.05,.32-.13,.13-.2,.13-.32V6.62c0-.12-.05-.24-.13-.32-.08-.09-.2-.13-.32-.13ZM14.88,15.68c-.55,0-1.07-.21-1.45-.6-.39-.39-.6-.9-.6-1.45V6.62c0-.55,.21-1.06,.6-1.45,.39-.39,.9-.6,1.45-.6s1.06,.21,1.45,.6c.39,.39,.6,.9,.6,1.45v7.01c0,.55-.21,1.07-.6,1.45s-.9,.6-1.45,.6Zm0-9.52c-.12,0-.24,.05-.32,.13-.08,.09-.13,.2-.13,.32v7.01c0,.12,.05,.24,.13,.32,.09,.09,.2,.13,.32,.13s.24-.05,.32-.13c.09-.09,.13-.2,.13-.32V6.62c0-.12-.05-.24-.13-.32-.08-.09-.2-.13-.32-.13Z"/><path class="cls-7" d="M29.94,4.94c.46,0,.88,.19,1.19,.49h0c.3,.3,.49,.72,.49,1.19v7.01c0,.46-.19,.88-.49,1.19-.3,.3-.72,.49-1.19,.49s-.88-.19-1.19-.49h0c-.3-.31-.49-.73-.49-1.19V6.62c0-.46,.19-.88,.49-1.19h0s0,0,0,0c.31-.3,.72-.49,1.19-.49m-.59,9.27h0c.15,.15,.36,.24,.59,.24s.44-.09,.59-.24c.15-.15,.24-.36,.24-.59V6.62c0-.23-.09-.44-.24-.59h0c-.15-.15-.36-.24-.59-.24s-.44,.09-.59,.24h0c-.15,.15-.24,.36-.24,.59v7.01c0,.23,.09,.44,.24,.59M14.88,4.94c.46,0,.88,.19,1.19,.49h0c.3,.3,.49,.72,.49,1.19v7.01c0,.46-.19,.88-.49,1.19-.3,.3-.72,.49-1.19,.49s-.88-.19-1.19-.49c-.3-.3-.49-.72-.49-1.19V6.62c0-.46,.19-.88,.49-1.19,.3-.3,.72-.49,1.19-.49m0,9.52c.23,0,.44-.09,.59-.24,.15-.15,.24-.36,.24-.59V6.62c0-.23-.09-.44-.24-.59h0c-.15-.15-.36-.24-.59-.24s-.44,.09-.59,.24c-.15,.15-.24,.36-.24,.59v7.01c0,.23,.09,.44,.24,.59,.15,.15,.36,.24,.59,.24M29.94,4.19c-.65,0-1.26,.25-1.72,.71-.46,.46-.71,1.07-.71,1.72v7.01c0,.38,.09,.74,.25,1.07l-.1,.09,.56,.56c.46,.46,1.07,.71,1.72,.71s1.26-.25,1.72-.71c.46-.46,.71-1.07,.71-1.72V6.62c0-.65-.25-1.26-.71-1.72l-.58-.58-.09,.1c-.33-.16-.68-.24-1.05-.24h0Zm-.07,9.48s-.01-.03-.01-.05V6.62s0-.04,.02-.06c.02-.02,.03-.02,.06-.02,.02,0,.04,0,.05,.01h0s.02,.04,.02,.07v7.01s0,.04-.02,.06c-.02,.02-.03,.02-.06,.02s-.04,0-.06-.02h-.01ZM14.88,4.19c-.65,0-1.26,.25-1.72,.71-.46,.46-.71,1.07-.71,1.72v7.01c0,.65,.25,1.26,.71,1.72,.46,.46,1.07,.71,1.72,.71s1.26-.25,1.72-.71c.46-.46,.71-1.07,.71-1.72V6.62c0-.65-.25-1.26-.71-1.72l-.53-.53-.08,.08c-.34-.17-.71-.27-1.11-.27h0Zm0,9.52s-.04,0-.06-.02c-.02-.02-.02-.03-.02-.06V6.62s0-.04,.02-.06c.02-.02,.03-.02,.06-.02,.02,0,.03,0,.05,.01h0s.02,.04,.02,.07v7.01s0,.04-.02,.06c-.02,.02-.03,.02-.06,.02h0Z"/></g><path class="cls-6" d="M16.14,13.62c0,.69-.56,1.26-1.26,1.26s-1.26-.56-1.26-1.26V6.62c0-.69,.56-1.26,1.26-1.26s1.26,.56,1.26,1.26v7.01h0Zm15.06,0c0,.69-.56,1.26-1.26,1.26s-1.26-.56-1.26-1.26V6.62c0-.69,.56-1.26,1.26-1.26s1.26,.56,1.26,1.26v7.01Z"/></svg>