<svg xmlns="http://www.w3.org/2000/svg" width="36.05" height="37.858" viewBox="0 0 36.05 37.858"><defs><style>.a{fill:#47c77d;}.b{fill:#6b6b6b;}</style></defs><g transform="translate(-1639.75 -529.123)"><ellipse class="a" cx="4" cy="3.5" rx="4" ry="3.5" transform="translate(1658 551)"/><g transform="translate(1637.25 528.105)"><path class="b" d="M37.777,20.021a.816.816,0,0,0-.811.811A16.441,16.441,0,1,1,19.385,4.45l-.734.541a.793.793,0,0,0,.464,1.43.85.85,0,0,0,.5-.155l2.666-2.009a.825.825,0,0,0,.309-.657.861.861,0,0,0-.348-.657L19.578,1.166A.737.737,0,0,0,18.5,1.4a.819.819,0,0,0,.232,1.121l.541.348A18.027,18.027,0,1,0,38.55,20.833.784.784,0,0,0,37.777,20.021Z"/><circle class="b" cx="0.966" cy="0.966" r="0.966" transform="translate(36.193 15.694)"/><circle class="b" cx="0.966" cy="0.966" r="0.966" transform="translate(34.918 12.062)"/><circle class="b" cx="0.966" cy="0.966" r="0.966" transform="translate(32.599 8.662)"/><circle class="b" cx="0.966" cy="0.966" r="0.966" transform="translate(29.354 5.764)"/><circle class="b" cx="0.966" cy="0.966" r="0.966" transform="translate(25.528 3.716)"/><path class="b" d="M45.162,43.124a.655.655,0,0,0-.889,0L40.95,46.447l-1.468-1.468a.655.655,0,0,0-.889,0,.564.564,0,0,0,0,.85l1.893,1.893a.564.564,0,0,0,.85,0l3.787-3.787a.62.62,0,0,0,.193-.425A.425.425,0,0,0,45.162,43.124Z" transform="translate(-22.029 -25.73)"/><path class="b" d="M58.475,63.916l-1.584-1.584a4.42,4.42,0,0,0,.773-2.55A4.493,4.493,0,1,0,56,63.259l1.546,1.546a.64.64,0,0,0,.464.193.8.8,0,0,0,.464-.193A.588.588,0,0,0,58.475,63.916Zm-8.423-4.134a3.207,3.207,0,1,1,3.207,3.207A3.2,3.2,0,0,1,50.052,59.782Z" transform="translate(-28.349 -33.308)"/><path class="b" d="M43.23,26.532l-3.052-3.439a.62.62,0,0,0-.425-.193H27.041a.528.528,0,0,0-.541.541V42.76a.528.528,0,0,0,.541.541H33.88a.541.541,0,0,0,0-1.082h-6.3V24.059H38.826v3.362a.528.528,0,0,0,.541.541h2.859v6.53a.541.541,0,1,0,1.082,0V26.918A.449.449,0,0,0,43.23,26.532Zm-3.284-2.009,2.048,2.28H39.946Z" transform="translate(-14.727 -13.427)"/></g></g></svg>