<?xml version="1.0" encoding="UTF-8"?><svg id="_Ñëîé_1" xmlns="http://www.w3.org/2000/svg" viewBox="0 0 54 54"><defs><style>.cls-1,.cls-2{fill:#8b8b8b;}.cls-2,.cls-3{fill-rule:evenodd;}.cls-3{fill:#f5d963;}</style></defs><path class="cls-3" d="M17.69,14.57c-2.44,4.41-7.26,6.57-11.85,7.84C2.15,23.43,0,27.48,1.33,32.26s5.24,7.15,8.92,6.14c4.59-1.27,9.84-1.89,14.2,.64-2.5-2.78-4.67-6.8-5.97-11.52s-1.51-9.28-.79-12.95h0Z"/><g><path class="cls-2" d="M31.88,40.29c-3.85,0-8.37-5.84-10.51-13.58-2.31-8.37-.99-16.34,2.9-17.41,.3-.08,.6-.12,.92-.12,3.85,0,8.37,5.84,10.51,13.58,2.31,8.36,.99,16.34-2.9,17.41-.3,.08-.6,.12-.92,.12Z"/><path class="cls-1" d="M25.19,9.72c3.12,0,7.71,4.93,9.99,13.19,1.14,4.11,1.44,8.16,.85,11.42-.53,2.94-1.76,4.89-3.37,5.33-.25,.07-.51,.1-.78,.1-3.12,0-7.71-4.93-9.99-13.19-2.47-8.92-.69-15.87,2.52-16.76,.25-.07,.51-.1,.78-.1m0-1.06c-.36,0-.71,.05-1.06,.14-4.24,1.17-5.7,9.26-3.27,18.06,2.23,8.09,6.98,13.97,11.02,13.97,.36,0,.71-.05,1.06-.14,4.24-1.17,5.7-9.26,3.27-18.06-2.23-8.09-6.98-13.97-11.02-13.97h0Z"/></g><path class="cls-3" d="M22.57,21h-.02c-.16,2.39,1.64,8.55,2.77,10.02h.02c2.59-.72,4.06-3.54,3.3-6.31s-3.48-4.43-6.07-3.71h0Z"/><path class="cls-1" d="M16.23,18.2c-.09,3.04,.32,6.34,1.22,9.6,.9,3.26,2.24,6.31,3.88,8.87-1.23-.29-2.54-.44-3.92-.44-2.23,0-4.67,.37-7.44,1.14-.47,.13-.94,.19-1.42,.19-2.83,0-5.26-2.19-6.19-5.59-1.12-4.04,.47-7.63,3.76-8.54,4.43-1.22,7.77-2.95,10.11-5.23m1.46-3.63h0Zm0,0c-2.44,4.41-7.26,6.57-11.85,7.84C2.15,23.43,0,27.48,1.33,32.26c1.12,4.05,4.1,6.37,7.22,6.37,.57,0,1.14-.08,1.7-.23,2.29-.63,4.74-1.1,7.16-1.1s4.85,.48,7.04,1.75c-2.5-2.78-4.67-6.8-5.97-11.52-1.3-4.72-1.51-9.28-.79-12.95h0Z"/><path class="cls-2" d="M18.07,39.16h0c-.15,1.33,.9,4.66,1.95,5.35,.33,.21,.42,.5,.43,.95,.06,2.62,1.13,3.79,2.08,5.16,.21,.3,.06,.7-.3,.99-.36,.29-3.01,.82-4.47,.44-1.46-.38-2.78-2.51-3.13-3.12-.35-.61-2.49-5.22-3.07-6.62-.59-1.4-.53-1.32-.82-2.12,2.26-.72,4.97-1.17,7.34-1.02h0Z"/><path class="cls-3" d="M43.49,16.81l5.65-3.51c.41-.26,.54-.85,.28-1.31-.26-.46-.81-.63-1.22-.37l-5.65,3.51c-.41,.26-.54,.85-.28,1.31,.26,.46,.81,.63,1.22,.37h0Z"/><path class="cls-3" d="M45.39,26.01l6.65,.11c.49,0,.87-.42,.86-.95-.02-.53-.43-.97-.91-.98l-6.65-.11c-.49,0-.87,.42-.86,.95,.02,.53,.43,.97,.91,.98h0Z"/><path class="cls-3" d="M42.83,34.79l5.87,3.71c.43,.27,.97,.12,1.2-.33,.23-.45,.07-1.05-.36-1.32l-5.87-3.71c-.43-.27-.97-.12-1.2,.33-.23,.45-.07,1.05,.36,1.32h0Z"/><path class="cls-3" d="M37.65,9.63l3.13-6.2c.23-.45,.07-1.05-.36-1.32-.43-.27-.97-.12-1.2,.33l-3.13,6.2c-.23,.45-.07,1.05,.36,1.32,.43,.27,.97,.12,1.2-.33Z"/></svg>