<svg xmlns="http://www.w3.org/2000/svg" width="60" height="60" viewBox="0 0 60 60"><defs><style>.a{fill:#ffda59;}.b{fill:#8c8c8c;}</style></defs><g transform="translate(0)"><path class="a" d="M973.413,182.883l-2.019,1-2.775,7.883.5-12.763a2.159,2.159,0,0,0-4.289.5l-2.523,9.76q.063-6.695.126-13.389l-3.28-.876-1.262,1.877-2.523,11.887-.883-10.886-3.532-.125L949.7,195.146l-4.289-6.382-3.406,1v2.5l6.308,24.651v14.765h.252v1.126h21.068v-1.627H969.4l1.235-24.4,2.271-5.631,2.4-15.391Z" transform="translate(-928.393 -173.7)"/><path class="b" d="M875.907,206.819a45.342,45.342,0,0,1-19.529-.13v1.084q0,7.735,0,15.47c0,.262.09.6-.042.769-.262.327-.632.737-.99.77-.281.026-.688-.416-.892-.74a1.937,1.937,0,0,1-.077-.942q-.006-4.851,0-9.7v-1.061l-8.965,1.883c.064.275.136.631.23.982.708,2.643,1.427,5.282,2.122,7.928a1.859,1.859,0,0,1,.067,1.1c-.12.277-.606.632-.837.576a1.508,1.508,0,0,1-.99-.768c-.563-1.805-1.017-3.643-1.511-5.469-.456-1.686-.918-3.37-1.369-5.056a1.637,1.637,0,0,1,.85-2.2,6.077,6.077,0,0,1,.536-.306c1.233-.638,1.334-.9.762-2.168a.721.721,0,0,0-.4-.387c-3-.661-4.734-2.851-6.286-5.178-1.018-1.527-1.838-3.185-2.71-4.8a1.677,1.677,0,1,1,2.857-1.758c.808,1,1.576,2.038,2.4,3.027a2.768,2.768,0,0,0,.81.466l.235-.206c-.354-1.427-.705-2.854-1.064-4.28-.576-2.286-1.161-4.57-1.735-6.856a1.637,1.637,0,0,1,1.263-2.2,1.6,1.6,0,0,1,1.948,1.316c.657,2.262,1.3,4.527,1.946,6.776,1.1.051,1.2-.064,1.025-1.021q-.747-3.99-1.492-7.98c-.23-1.234.215-2,1.262-2.2.991-.183,1.674.342,1.938,1.545.568,2.586,1.115,5.177,1.673,7.766.061.282.135.562.211.872h1.075a9.832,9.832,0,0,0-.09-1.222c-.6-2.991-1.19-5.985-1.842-8.965-.517-2.36.452-4.115,2.6-4.539a3.372,3.372,0,0,1,3.733,2.006c.509,1.077,1,2.163,1.5,3.243.006.013.049.009.2.032v-.937c0-4.079-.01-8.157,0-12.236a3.348,3.348,0,0,1,3.575-3.577,3.225,3.225,0,0,1,3.215,3.086,35.333,35.333,0,0,0,.325,4.244q.216-3.388.432-6.776a3.339,3.339,0,0,1,4.235-3.158,3.178,3.178,0,0,1,2.455,3.135c.011,1.891,0,3.781,0,5.275.089-.706.231-1.819.369-2.933a3.262,3.262,0,0,1,6.488.682c-.2,2.262-.409,4.524-.611,6.786a.788.788,0,0,0,.1.5c.192-.966.388-1.931.575-2.9a2.988,2.988,0,0,1,3.449-2.511,3.059,3.059,0,0,1,2.489,3.468c-.586,5.731-1.4,11.446-1.364,17.226,0,.227.022.454.033.682.693.2,1.01.035,1.081-.693.27-2.781.588-5.558.89-8.336.118-1.081.766-1.681,1.712-1.595.835.077,1.31.811,1.221,1.9-.223,2.728-.453,5.455-.673,8.184-.023.285,0,.572,0,.916l.965.153c.284-1.647.562-3.242.833-4.838.132-.775.243-1.553.381-2.326a1.553,1.553,0,0,1,1.666-1.461,1.475,1.475,0,0,1,1.331,1.819c-.365,2.829-.779,5.651-1.176,8.476-.141,1.007-.288,2.013-.434,3.031.5.395.719.107.944-.294.6-1.069,1.215-2.131,1.834-3.189.575-.982,1.216-1.279,2-.946a1.591,1.591,0,0,1,.812,2.146c-.978,2.366-1.943,4.745-3.093,7.03a8.006,8.006,0,0,1-4.15,4.018.9.9,0,0,0-.434.574,13.31,13.31,0,0,0-.193,1.464c.643.287,1.275.524,1.861.842a1.614,1.614,0,0,1,.862,1.836c-.532,3.393-1.035,6.79-1.546,10.186-.177,1.177-.564,1.673-1.243,1.575-.7-.1-.908-.681-.725-1.852.44-2.818.86-5.639,1.285-8.46a1.33,1.33,0,0,0,0-.26l-10.223-1.2v.964q0,4.589,0,9.177c0,.291.083.652-.058.856-.22.318-.6.728-.911.729s-.719-.388-.952-.7c-.144-.193-.05-.564-.05-.855q0-7.647,0-15.295C875.907,207.589,875.907,207.245,875.907,206.819Zm-16.414-1.534a46.841,46.841,0,0,0,13.586-.011.9.9,0,0,0,.506-.687c.046-1.572-.018-3.148.051-4.718a1.77,1.77,0,0,1,.586-1.241,12.391,12.391,0,0,0,5.207-8.248c.835-4.664,1.331-9.387,1.971-14.085.094-.687-.084-1.292-.848-1.387s-1.04.44-1.165,1.133c-.5,2.778-1.043,5.548-1.559,8.324-.122.654-.429,1.106-1.163,1.046a2.2,2.2,0,0,1-2.3-2.756c.012-.116.035-.231.045-.347.325-3.742.659-7.484.964-11.227.083-1.022-.358-1.6-1.144-1.645-.769-.046-1.261.5-1.376,1.484q-.6,5.162-1.21,10.323c-.114.961-.436,1.209-1.4,1.105-.263-.028-.522-.1-.784-.137-1.208-.189-1.379-.368-1.339-1.592q.194-6.027.416-12.053c.041-1.148-.345-1.714-1.221-1.762s-1.354.44-1.437,1.595q-.421,5.883-.79,11.769c-.112,1.808-.115,1.841-1.929,1.929-1.424.07-1.723-.207-1.759-1.61-.08-3.145-.153-6.291-.248-9.436-.032-1.041-.548-1.592-1.385-1.567-.94.028-1.434.569-1.434,1.613,0,4.866.012,9.731,0,14.6,0,.528.176.725.678.9a24.1,24.1,0,0,1,3.052,1.343,1.178,1.178,0,0,1,.467.933,1,1,0,0,1-.593.754,2.513,2.513,0,0,1-1.16-.2A24.967,24.967,0,0,0,857,188.356a1.916,1.916,0,0,1-1.838-1.274c-.733-1.777-1.536-3.528-2.341-5.276a1.411,1.411,0,0,0-1.812-.836,1.363,1.363,0,0,0-.844,1.7c.105.512.242,1.019.38,1.525.846,3.114,1.481,6.294,3,9.2,1.141,2.181,2.462,4.215,4.8,5.309a1.768,1.768,0,0,1,1.169,1.9c-.057,1.535-.015,3.073-.015,4.682Z" transform="translate(-835.623 -164.837)"/></g></svg>