<svg xmlns="http://www.w3.org/2000/svg" width="14.667" height="14.667" viewBox="0 0 14.667 14.667"><defs><style>.a{fill:#5d5c5c;}</style></defs><g transform="translate(-46 -37)"><g transform="translate(36 27)"><path class="a" d="M17.333,10a7.333,7.333,0,0,0-5.185,12.519l1.3-1.3a5.5,5.5,0,1,1,7.778,0l1.3,1.3A7.333,7.333,0,0,0,17.333,10Z"/><path class="a" d="M37.333,33.667a3.667,3.667,0,1,0-6.259,2.593l1.3-1.3a1.833,1.833,0,1,1,2.593,0l1.3,1.3A3.655,3.655,0,0,0,37.333,33.667Z" transform="translate(-16.333 -16.333)"/><path class="a" d="M40,57.333h3.667L41.833,50Z" transform="translate(-24.5 -32.667)"/></g></g></svg>